<svg version="1.1" id="Layer_1" xmlns="http://www.w3.org/2000/svg" xmlns:xlink="http://www.w3.org/1999/xlink" x="0px" y="0px"
	 width="100%" viewBox="0 0 500 500" enable-background="new 0 0 500 500" xml:space="preserve">
<path fill="#FFFFFF" opacity="1.000000" stroke="none" 
	d="
M225.000000,501.000000 
	C150.000015,501.000000 75.500038,501.000000 1.000040,501.000000 
	C1.000027,334.333405 1.000027,167.666779 1.000013,1.000129 
	C167.666565,1.000086 334.333130,1.000086 500.999756,1.000043 
	C500.999847,167.666534 500.999847,334.333069 500.999939,500.999817 
	C409.166656,501.000000 317.333344,501.000000 225.000000,501.000000 
M248.377258,186.480347 
	C248.377258,163.561951 248.377258,140.643555 248.377258,117.702087 
	C220.869812,117.702087 194.105560,117.702087 167.179749,117.702087 
	C167.179749,144.862747 167.179749,171.755142 167.179749,198.726349 
	C194.313568,198.726349 221.179031,198.726349 248.376846,198.726349 
	C248.376846,194.763916 248.376846,191.116669 248.377258,186.480347 
M251.926590,169.500000 
	C251.926590,186.750900 251.926590,204.001785 251.926590,221.343048 
	C279.361206,221.343048 306.196259,221.343048 333.187988,221.343048 
	C333.187988,194.068008 333.187988,167.182693 333.187988,140.294891 
	C306.008759,140.294891 279.130432,140.294891 251.926559,140.294891 
	C251.926559,149.909897 251.926559,159.204956 251.926590,169.500000 
M274.500031,224.997818 
	C267.075256,224.997818 259.650482,224.997818 252.137421,224.997818 
	C252.137421,252.404373 252.137421,279.172363 252.137421,306.140015 
	C279.150513,306.140015 306.003174,306.140015 332.788879,306.140015 
	C332.788879,278.918884 332.788879,252.060471 332.788879,224.997818 
	C313.434357,224.997818 294.467163,224.997818 274.500031,224.997818 
M195.500031,202.741394 
	C186.094818,202.741394 176.689590,202.741394 167.249573,202.741394 
	C167.249573,230.184769 167.249573,256.893097 167.249573,283.757721 
	C194.236893,283.757721 220.944489,283.757721 247.763885,283.757721 
	C247.763885,256.678772 247.763885,229.849396 247.763885,202.741180 
	C230.420547,202.741180 213.460297,202.741180 195.500031,202.741394 
M164.481567,333.230469 
	C164.242630,336.874084 164.003693,340.517731 163.768478,344.104370 
	C158.724533,341.266724 158.444412,333.939362 151.614716,332.850037 
	C151.614716,338.325226 151.530701,343.141083 151.681747,347.949585 
	C151.714050,348.977966 152.598907,349.979553 153.091003,350.993500 
	C153.652908,350.033997 154.614929,349.108337 154.699448,348.108490 
	C154.925980,345.428406 154.776718,342.716614 154.776718,339.582153 
	C159.978043,342.877777 160.523697,349.930359 167.161026,351.195007 
	C167.161026,345.565582 167.250763,340.595703 167.078384,335.634918 
	C167.047318,334.740875 165.937714,333.884277 164.481567,333.230469 
M217.985901,333.374207 
	C217.985901,336.918396 217.985901,340.462585 217.985901,344.006775 
	C217.545151,344.120087 217.104401,344.233368 216.663651,344.346680 
	C215.009109,342.151215 213.509705,339.812622 211.655045,337.801697 
	C209.903595,335.902710 209.294220,331.996399 205.229813,333.280182 
	C204.357346,349.318573 204.523163,350.389740 208.316223,350.501495 
	C208.316223,346.964081 208.316223,343.427551 208.316223,339.659332 
	C213.500732,342.571533 213.835327,350.122833 220.823898,351.135773 
	C220.823898,345.614777 220.940247,340.797852 220.730682,335.995117 
	C220.686066,334.972748 219.455215,334.002106 217.985901,333.374207 
M291.485535,333.669495 
	C285.315430,332.281128 280.828827,334.074463 278.981293,338.667572 
	C277.215546,343.057373 279.103882,347.859344 283.437592,349.999786 
	C287.999115,352.252716 293.580322,350.740051 296.129944,346.559753 
	C298.834137,342.126038 297.417816,337.562134 291.485535,333.669495 
M192.296906,335.037109 
	C185.196609,331.253296 177.996429,333.627625 176.857361,340.185181 
	C176.083481,344.640411 177.737442,348.007050 181.809235,350.041077 
	C185.805328,352.037323 190.839279,350.987885 193.609009,347.683197 
	C196.630966,344.077576 196.408722,340.335358 192.296906,335.037109 
M258.120972,348.586761 
	C258.745087,347.685760 259.529205,345.949921 259.964630,346.033386 
	C261.552063,346.337708 263.139374,347.074066 264.506226,347.980225 
	C265.971497,348.951599 267.188019,350.298187 268.513092,351.481018 
	C268.824158,351.147034 269.135223,350.813049 269.446320,350.479034 
	C268.428802,348.814728 267.411255,347.150452 266.393738,345.486145 
	C266.909760,345.507874 267.425781,345.529602 267.941803,345.551361 
	C268.256805,342.387543 269.894196,338.485229 268.622253,336.207642 
	C265.610779,330.815094 259.931793,333.554260 255.022339,332.916901 
	C255.022339,338.319000 255.022278,342.967957 255.022430,347.616913 
	C255.022446,347.950012 254.927368,348.322113 255.043091,348.608826 
	C255.367477,349.412415 255.779144,350.180756 256.156403,350.963043 
	C256.807800,350.467712 257.459229,349.972351 258.120972,348.586761 
M234.730988,349.988861 
	C234.803909,348.720490 234.876831,347.452148 234.945984,346.249359 
	C243.843674,345.311218 246.580917,343.284668 245.912201,338.362640 
	C245.254974,333.525299 241.024994,332.032104 231.598572,333.488708 
	C231.598572,338.541565 231.495117,343.657654 231.719269,348.759338 
	C231.749985,349.458771 233.410782,350.086578 234.730988,349.988861 
M307.656128,351.005157 
	C308.709015,348.837677 309.761871,346.670166 310.938507,344.247894 
	C312.940857,343.852203 315.534576,343.339630 318.128326,342.827087 
	C318.006317,342.288269 317.884338,341.749451 317.762360,341.210632 
	C315.176514,341.037750 312.590637,340.864899 309.768829,340.676270 
	C309.878326,338.968475 309.968445,337.562469 310.040955,336.431671 
	C313.031464,334.880096 316.855927,337.528320 319.587006,333.301025 
	C314.806885,333.301025 310.920013,333.301025 306.869263,333.301025 
	C306.869263,339.061401 306.869263,344.845428 307.656128,351.005157 
M353.708923,335.293396 
	C353.245056,334.525085 352.808075,333.110535 352.313141,333.089966 
	C348.062225,332.913269 343.800873,332.988495 339.542664,332.988495 
	C339.408997,333.570312 339.275360,334.152130 339.141724,334.733978 
	C340.950195,335.300385 342.758698,335.866821 344.692078,336.472351 
	C346.429016,350.522491 346.429016,350.522491 348.253265,350.602356 
	C348.253265,345.840149 348.253265,341.087585 348.253265,336.149078 
	C349.986816,336.009827 351.449524,335.892334 353.708923,335.293396 
M330.802246,340.575287 
	C330.802002,333.679108 330.802002,333.679108 327.949890,333.348877 
	C327.949890,339.179260 327.949890,345.009674 327.949890,350.840057 
	C328.646088,350.990784 329.342255,351.141510 330.038452,351.292267 
	C331.496887,348.357483 330.503479,344.767273 330.802246,340.575287 
z"/>
<path fill="#028F98" opacity="1.000000" stroke="none" 
	d="
M248.377045,186.974884 
	C248.376846,191.116669 248.376846,194.763916 248.376846,198.726349 
	C221.179031,198.726349 194.313568,198.726349 167.179749,198.726349 
	C167.179749,171.755142 167.179749,144.862747 167.179749,117.702087 
	C194.105560,117.702087 220.869812,117.702087 248.377258,117.702087 
	C248.377258,140.643555 248.377258,163.561951 248.377045,186.974884 
M215.583603,176.120377 
	C217.350143,177.321045 219.116684,178.521713 221.981979,180.469193 
	C221.981979,167.630966 222.058487,156.664642 221.860611,145.703293 
	C221.841370,144.637299 220.127518,143.601929 219.200302,142.552338 
	C218.718887,142.871887 218.237488,143.191422 217.756073,143.510956 
	C217.756073,152.513885 217.756073,161.516815 217.756073,171.748672 
	C210.801102,162.462418 204.720932,154.165222 198.400940,146.054901 
	C197.117569,144.407944 194.929977,143.465591 192.177765,141.496048 
	C192.177765,155.022476 192.177765,166.778839 192.177765,178.558090 
	C195.127945,179.645493 196.147812,178.784042 196.094604,175.763092 
	C195.952759,167.709671 196.046341,159.652084 196.046341,150.108383 
	C203.012665,159.407990 209.056747,167.476486 215.583603,176.120377 
z"/>
<path fill="#F58322" opacity="1.000000" stroke="none" 
	d="
M251.926575,169.000000 
	C251.926559,159.204956 251.926559,149.909897 251.926559,140.294891 
	C279.130432,140.294891 306.008759,140.294891 333.187988,140.294891 
	C333.187988,167.182693 333.187988,194.068008 333.187988,221.343048 
	C306.196259,221.343048 279.361206,221.343048 251.926590,221.343048 
	C251.926590,204.001785 251.926590,186.750900 251.926575,169.000000 
M274.309418,177.527130 
	C274.309753,184.525040 274.260834,191.523438 274.331177,198.520645 
	C274.366455,202.026413 274.464752,202.025421 278.859619,201.071304 
	C278.859619,192.619400 278.859619,184.014175 278.859619,175.408966 
	C282.639404,180.921310 285.401398,186.572861 288.357819,192.120819 
	C289.479919,194.226501 291.049561,196.093704 292.415192,198.069611 
	C293.962158,196.102737 295.810303,194.301163 296.997986,192.137115 
	C300.201508,186.300034 303.123627,180.308517 306.157410,174.378281 
	C307.046082,182.772049 307.083984,190.764420 307.025574,198.756088 
	C307.005066,201.561295 307.716187,202.988419 311.000092,201.184326 
	C311.000092,190.688293 311.003967,180.044037 310.993683,169.399780 
	C310.992737,168.423172 310.901245,167.446671 310.852600,166.485825 
	C307.443298,165.231171 305.514282,166.184387 304.015900,169.366684 
	C300.567078,176.691345 296.771027,183.852539 292.760712,191.782364 
	C288.715363,183.841705 284.984100,176.810410 281.547211,169.638016 
	C280.009979,166.429993 278.169769,164.929626 274.309692,166.688110 
	C274.309692,169.912979 274.309692,173.225815 274.309418,177.527130 
z"/>
<path fill="#018E97" opacity="1.000000" stroke="none" 
	d="
M275.000000,224.997818 
	C294.467163,224.997818 313.434357,224.997818 332.788879,224.997818 
	C332.788879,252.060471 332.788879,278.918884 332.788879,306.140015 
	C306.003174,306.140015 279.150513,306.140015 252.137421,306.140015 
	C252.137421,279.172363 252.137421,252.404373 252.137421,224.997818 
	C259.650482,224.997818 267.075256,224.997818 275.000000,224.997818 
M284.534821,278.183533 
	C298.852020,283.436401 312.877197,274.238953 311.470123,260.519836 
	C310.582886,251.868683 304.051361,245.264236 295.262238,244.130997 
	C286.139679,242.954742 277.577972,248.104141 274.762756,256.460327 
	C271.936676,264.848755 275.206268,272.584442 284.534821,278.183533 
z"/>
<path fill="#F58220" opacity="1.000000" stroke="none" 
	d="
M196.000031,202.741287 
	C213.460297,202.741180 230.420547,202.741180 247.763885,202.741180 
	C247.763885,229.849396 247.763885,256.678772 247.763885,283.757721 
	C220.944489,283.757721 194.236893,283.757721 167.249573,283.757721 
	C167.249573,256.893097 167.249573,230.184769 167.249573,202.741394 
	C176.689590,202.741394 186.094818,202.741394 196.000031,202.741287 
M217.401169,225.951355 
	C203.840149,219.011948 188.854797,226.129303 188.060638,239.886734 
	C187.562836,248.510437 193.068985,255.845886 201.863281,258.274933 
	C210.662308,260.705292 219.930878,256.762207 223.920334,248.891296 
	C227.926239,240.987991 225.757126,232.687210 217.401169,225.951355 
z"/>
<path fill="#313131" opacity="1.000000" stroke="none" 
	d="
M164.903809,333.120422 
	C165.937714,333.884277 167.047318,334.740875 167.078384,335.634918 
	C167.250763,340.595703 167.161026,345.565582 167.161026,351.195007 
	C160.523697,349.930359 159.978043,342.877777 154.776718,339.582153 
	C154.776718,342.716614 154.925980,345.428406 154.699448,348.108490 
	C154.614929,349.108337 153.652908,350.033997 153.091003,350.993500 
	C152.598907,349.979553 151.714050,348.977966 151.681747,347.949585 
	C151.530701,343.141083 151.614716,338.325226 151.614716,332.850037 
	C158.444412,333.939362 158.724533,341.266724 163.768478,344.104370 
	C164.003693,340.517731 164.242630,336.874084 164.903809,333.120422 
z"/>
<path fill="#313131" opacity="1.000000" stroke="none" 
	d="
M218.378387,333.190918 
	C219.455215,334.002106 220.686066,334.972748 220.730682,335.995117 
	C220.940247,340.797852 220.823898,345.614777 220.823898,351.135773 
	C213.835327,350.122833 213.500732,342.571533 208.316223,339.659332 
	C208.316223,343.427551 208.316223,346.964081 208.316223,350.501495 
	C204.523163,350.389740 204.357346,349.318573 205.229813,333.280182 
	C209.294220,331.996399 209.903595,335.902710 211.655045,337.801697 
	C213.509705,339.812622 215.009109,342.151215 216.663651,344.346680 
	C217.104401,344.233368 217.545151,344.120087 217.985901,344.006775 
	C217.985901,340.462585 217.985901,336.918396 218.378387,333.190918 
z"/>
<path fill="#363636" opacity="1.000000" stroke="none" 
	d="
M291.851135,333.809692 
	C297.417816,337.562134 298.834137,342.126038 296.129944,346.559753 
	C293.580322,350.740051 287.999115,352.252716 283.437592,349.999786 
	C279.103882,347.859344 277.215546,343.057373 278.981293,338.667572 
	C280.828827,334.074463 285.315430,332.281128 291.851135,333.809692 
M294.109924,341.587860 
	C292.544159,336.800934 289.639893,334.791046 285.866486,336.233673 
	C282.529938,337.509216 280.519531,340.292633 282.086731,343.619293 
	C283.004028,345.566406 285.697784,347.487793 287.858124,347.854401 
	C291.399292,348.455261 293.624573,346.076630 294.109924,341.587860 
z"/>
<path fill="#363636" opacity="1.000000" stroke="none" 
	d="
M192.591904,335.280762 
	C196.408722,340.335358 196.630966,344.077576 193.609009,347.683197 
	C190.839279,350.987885 185.805328,352.037323 181.809235,350.041077 
	C177.737442,348.007050 176.083481,344.640411 176.857361,340.185181 
	C177.996429,333.627625 185.196609,331.253296 192.591904,335.280762 
M190.182266,337.300415 
	C185.558838,335.170135 181.980865,335.833954 180.449188,339.371490 
	C179.108139,342.468811 179.664276,345.770020 182.856552,346.924713 
	C185.058304,347.721100 188.527924,347.449402 190.400253,346.159271 
	C193.349442,344.127106 193.061096,340.770477 190.182266,337.300415 
z"/>
<path fill="#313131" opacity="1.000000" stroke="none" 
	d="
M258.115814,349.031891 
	C257.459229,349.972351 256.807800,350.467712 256.156372,350.963013 
	C255.779144,350.180756 255.367477,349.412415 255.043091,348.608826 
	C254.927368,348.322113 255.022446,347.950012 255.022430,347.616913 
	C255.022278,342.967957 255.022339,338.319000 255.022339,332.916901 
	C259.931793,333.554260 265.610779,330.815094 268.622253,336.207642 
	C269.894196,338.485229 268.256805,342.387543 267.941803,345.551361 
	C267.425781,345.529602 266.909760,345.507874 266.393738,345.486145 
	C267.411255,347.150452 268.428802,348.814728 269.446320,350.479034 
	C269.135223,350.813049 268.824158,351.147034 268.513092,351.481018 
	C267.188019,350.298187 265.971497,348.951599 264.506226,347.980225 
	C263.139374,347.074066 261.552063,346.337708 259.964630,346.033386 
	C259.529205,345.949921 258.745087,347.685760 258.115814,349.031891 
M266.639191,338.652008 
	C264.740143,334.407593 261.401184,335.989105 258.399628,336.198273 
	C258.399628,338.681274 258.399628,340.752960 258.399628,343.166504 
	C261.725464,342.516235 265.654694,344.368378 266.639191,338.652008 
z"/>
<path fill="#363636" opacity="1.000000" stroke="none" 
	d="
M234.523926,350.368225 
	C233.410782,350.086578 231.749985,349.458771 231.719269,348.759338 
	C231.495117,343.657654 231.598572,338.541565 231.598572,333.488708 
	C241.024994,332.032104 245.254974,333.525299 245.912201,338.362640 
	C246.580917,343.284668 243.843674,345.311218 234.945984,346.249359 
	C234.876831,347.452148 234.803909,348.720490 234.523926,350.368225 
M241.500763,336.554749 
	C239.338623,336.308685 237.176498,336.062653 235.097626,335.826080 
	C235.097626,338.674286 235.097626,340.742371 235.097626,342.789246 
	C242.418808,343.090027 243.369507,342.284119 241.500763,336.554749 
z"/>
<path fill="#383838" opacity="1.000000" stroke="none" 
	d="
M307.262695,350.817322 
	C306.869263,344.845428 306.869263,339.061401 306.869263,333.301025 
	C310.920013,333.301025 314.806885,333.301025 319.587006,333.301025 
	C316.855927,337.528320 313.031464,334.880096 310.040955,336.431671 
	C309.968445,337.562469 309.878326,338.968475 309.768829,340.676270 
	C312.590637,340.864899 315.176514,341.037750 317.762360,341.210632 
	C317.884338,341.749451 318.006317,342.288269 318.128326,342.827087 
	C315.534576,343.339630 312.940857,343.852203 310.938507,344.247894 
	C309.761871,346.670166 308.709015,348.837677 307.262695,350.817322 
z"/>
<path fill="#313131" opacity="1.000000" stroke="none" 
	d="
M353.310577,335.534119 
	C351.449524,335.892334 349.986816,336.009827 348.253265,336.149078 
	C348.253265,341.087585 348.253265,345.840149 348.253265,350.602356 
	C346.429016,350.522491 346.429016,350.522491 344.692078,336.472351 
	C342.758698,335.866821 340.950195,335.300385 339.141724,334.733978 
	C339.275360,334.152130 339.408997,333.570312 339.542664,332.988495 
	C343.800873,332.988495 348.062225,332.913269 352.313141,333.089966 
	C352.808075,333.110535 353.245056,334.525085 353.310577,335.534119 
z"/>
<path fill="#383838" opacity="1.000000" stroke="none" 
	d="
M330.802216,341.048889 
	C330.503479,344.767273 331.496887,348.357483 330.038452,351.292267 
	C329.342255,351.141510 328.646088,350.990784 327.949890,350.840057 
	C327.949890,345.009674 327.949890,339.179260 327.944763,333.345337 
	C330.802002,333.679108 330.802002,333.679108 330.802216,341.048889 
z"/>
<path fill="#F9FCFC" opacity="1.000000" stroke="none" 
	d="
M215.342224,175.832672 
	C209.056747,167.476486 203.012665,159.407990 196.046341,150.108383 
	C196.046341,159.652084 195.952759,167.709671 196.094604,175.763092 
	C196.147812,178.784042 195.127945,179.645493 192.177765,178.558090 
	C192.177765,166.778839 192.177765,155.022476 192.177765,141.496048 
	C194.929977,143.465591 197.117569,144.407944 198.400940,146.054901 
	C204.720932,154.165222 210.801102,162.462418 217.756073,171.748672 
	C217.756073,161.516815 217.756073,152.513885 217.756073,143.510956 
	C218.237488,143.191422 218.718887,142.871887 219.200302,142.552338 
	C220.127518,143.601929 221.841370,144.637299 221.860611,145.703293 
	C222.058487,156.664642 221.981979,167.630966 221.981979,180.469193 
	C219.116684,178.521713 217.350143,177.321045 215.342224,175.832672 
z"/>
<path fill="#FEF8F2" opacity="1.000000" stroke="none" 
	d="
M274.309570,177.032898 
	C274.309692,173.225815 274.309692,169.912979 274.309692,166.688110 
	C278.169769,164.929626 280.009979,166.429993 281.547211,169.638016 
	C284.984100,176.810410 288.715363,183.841705 292.760712,191.782364 
	C296.771027,183.852539 300.567078,176.691345 304.015900,169.366684 
	C305.514282,166.184387 307.443298,165.231171 310.852600,166.485825 
	C310.901245,167.446671 310.992737,168.423172 310.993683,169.399780 
	C311.003967,180.044037 311.000092,190.688293 311.000092,201.184326 
	C307.716187,202.988419 307.005066,201.561295 307.025574,198.756088 
	C307.083984,190.764420 307.046082,182.772049 306.157410,174.378281 
	C303.123627,180.308517 300.201508,186.300034 296.997986,192.137115 
	C295.810303,194.301163 293.962158,196.102737 292.415192,198.069611 
	C291.049561,196.093704 289.479919,194.226501 288.357819,192.120819 
	C285.401398,186.572861 282.639404,180.921310 278.859619,175.408966 
	C278.859619,184.014175 278.859619,192.619400 278.859619,201.071304 
	C274.464752,202.025421 274.366455,202.026413 274.331177,198.520645 
	C274.260834,191.523438 274.309753,184.525040 274.309570,177.032898 
z"/>
<path fill="#F0F8F9" opacity="1.000000" stroke="none" 
	d="
M284.179932,278.042450 
	C275.206268,272.584442 271.936676,264.848755 274.762756,256.460327 
	C277.577972,248.104141 286.139679,242.954742 295.262238,244.130997 
	C304.051361,245.264236 310.582886,251.868683 311.470123,260.519836 
	C312.877197,274.238953 298.852020,283.436401 284.179932,278.042450 
M284.932159,273.815704 
	C294.855042,279.711090 306.204895,272.742950 307.083984,263.702637 
	C307.775452,256.592102 303.862091,250.748932 296.868347,248.642044 
	C290.244934,246.646729 283.075073,249.515121 279.803864,255.468903 
	C276.337036,261.778717 277.900543,268.005066 284.932159,273.815704 
z"/>
<path fill="#FEF7F1" opacity="1.000000" stroke="none" 
	d="
M217.714966,226.148392 
	C225.757126,232.687210 227.926239,240.987991 223.920334,248.891296 
	C219.930878,256.762207 210.662308,260.705292 201.863281,258.274933 
	C193.068985,255.845886 187.562836,248.510437 188.060638,239.886734 
	C188.854797,226.129303 203.840149,219.011948 217.714966,226.148392 
M194.261932,234.023346 
	C191.281937,240.815353 192.126358,246.675766 196.699783,250.941971 
	C201.473343,255.394852 208.581055,256.222565 214.316574,252.993500 
	C219.705933,249.959351 222.340317,244.382187 221.104065,238.178711 
	C219.938202,232.328568 216.080872,228.837479 210.480484,227.495773 
	C204.024567,225.949112 198.689682,228.049896 194.261932,234.023346 
z"/>
<path fill="#F9FCFC" opacity="1.000000" stroke="none" 
	d="
M294.109894,341.995056 
	C293.624573,346.076630 291.399292,348.455261 287.858124,347.854401 
	C285.697784,347.487793 283.004028,345.566406 282.086731,343.619293 
	C280.519531,340.292633 282.529938,337.509216 285.866486,336.233673 
	C289.639893,334.791046 292.544159,336.800934 294.109894,341.995056 
z"/>
<path fill="#F9F9F9" opacity="1.000000" stroke="none" 
	d="
M190.476440,337.590210 
	C193.061096,340.770477 193.349442,344.127106 190.400253,346.159271 
	C188.527924,347.449402 185.058304,347.721100 182.856552,346.924713 
	C179.664276,345.770020 179.108139,342.468811 180.449188,339.371490 
	C181.980865,335.833954 185.558838,335.170135 190.476440,337.590210 
z"/>
<path fill="#F0F8F9" opacity="1.000000" stroke="none" 
	d="
M266.685913,339.045349 
	C265.654694,344.368378 261.725464,342.516235 258.399628,343.166504 
	C258.399628,340.752960 258.399628,338.681274 258.399628,336.198273 
	C261.401184,335.989105 264.740143,334.407593 266.685913,339.045349 
z"/>
<path fill="#F9F9F9" opacity="1.000000" stroke="none" 
	d="
M241.789948,336.855652 
	C243.369507,342.284119 242.418808,343.090027 235.097626,342.789246 
	C235.097626,340.742371 235.097626,338.674286 235.097626,335.826080 
	C237.176498,336.062653 239.338623,336.308685 241.789948,336.855652 
z"/>
<path fill="#049098" opacity="1.000000" stroke="none" 
	d="
M284.618347,273.603882 
	C277.900543,268.005066 276.337036,261.778717 279.803864,255.468903 
	C283.075073,249.515121 290.244934,246.646729 296.868347,248.642044 
	C303.862091,250.748932 307.775452,256.592102 307.083984,263.702637 
	C306.204895,272.742950 294.855042,279.711090 284.618347,273.603882 
z"/>
<path fill="#F58424" opacity="1.000000" stroke="none" 
	d="
M194.476562,233.712219 
	C198.689682,228.049896 204.024567,225.949112 210.480484,227.495773 
	C216.080872,228.837479 219.938202,232.328568 221.104065,238.178711 
	C222.340317,244.382187 219.705933,249.959351 214.316574,252.993500 
	C208.581055,256.222565 201.473343,255.394852 196.699783,250.941971 
	C192.126358,246.675766 191.281937,240.815353 194.476562,233.712219 
z"/>
</svg>